<?xml version="1.0" encoding="UTF-8"?>
<svg width="239px" height="51px" viewBox="0 0 239 51" version="1.1" xmlns="http://www.w3.org/2000/svg" xmlns:xlink="http://www.w3.org/1999/xlink">
    <title>Reynolds_Logo_1c_white</title>
    <defs>
        <polygon id="path-1" points="0 0 239 0 239 51 0 51"></polygon>
    </defs>
    <g id="Page-1" stroke="none" stroke-width="1" fill="none" fill-rule="evenodd">
        <g id="Product-Listing_Desktop" transform="translate(-40.000000, -37.000000)">
            <g id="Reynolds_Logo_1c_white" transform="translate(40.000000, 37.000000)">
                <path d="M187.379355,18.6319745 C185.624771,18.6319745 184.440397,16.9793018 184.968435,15.1361657 C185.267795,14.0924981 186.257942,13.3987099 187.338371,13.3987099 L187.357972,13.3987099 C188.809632,13.3987099 189.865114,14.5761198 189.865114,16.0162378 C189.865114,17.4742677 188.809632,18.6486923 187.379355,18.6319745 M187.379355,12.744925 L187.357972,12.744925 C185.500037,12.744925 184.013333,14.2011637 184.013333,16.0162378 C184.013333,17.8677328 185.500037,19.3126273 187.357972,19.3126273 C189.244417,19.3126273 190.694889,17.8677328 190.694889,16.0162378 C190.694889,14.2011637 189.244417,12.744925 187.379355,12.744925" id="Fill-1" fill="#FFFFFE"></path>
                <g id="Group-8">
                    <mask id="mask-2" fill="white">
                        <use xlink:href="#path-1"></use>
                    </mask>
                    <g id="Clip-3"></g>
                    <path d="M187.227893,15.8771219 L186.859632,15.8771219 L186.859632,14.9397317 C186.947539,14.9194315 187.08237,14.9015196 187.281944,14.9015196 C187.755931,14.9015196 187.975105,15.0985507 187.975105,15.3988738 C187.975105,15.737409 187.639513,15.8771219 187.227893,15.8771219 M188.112906,16.1171416 L188.112906,16.074153 C188.515617,15.9583226 188.789437,15.6747173 188.789437,15.2961788 C188.789437,14.9976469 188.652824,14.7421035 188.474039,14.59642 C188.240016,14.438198 187.96085,14.3390854 187.337777,14.3390854 C186.803205,14.3390854 186.381487,14.3940153 186.089254,14.4555129 L186.089254,17.7113021 L186.845377,17.7113021 L186.845377,16.4156735 L187.201164,16.4156735 C187.61813,16.4156735 187.812952,16.5721042 187.878289,16.9351191 C187.975105,17.3100752 188.038066,17.5936805 188.139041,17.7113021 L188.949214,17.7113021 C188.871405,17.6133836 188.810226,17.410979 188.708657,16.9172071 C188.610652,16.4741858 188.432462,16.2168512 188.112906,16.1171416" id="Fill-2" fill="#FFFFFE" mask="url(#mask-2)"></path>
                    <path d="M204.210056,0 C203.224068,15.232293 195.565433,33.6493245 178.800069,51 L186.812114,51 C203.668357,33.4505022 211.680996,15.2221429 213.783052,0 L204.210056,0" id="Fill-4" fill="#FFFFFE" mask="url(#mask-2)"></path>
                    <path d="M232.936766,0 C230.183126,14.95227 221.980416,33.055843 204.647811,51 L210.111731,51 C227.348113,33.0665902 235.762276,14.9104755 239,0 L232.936766,0" id="Fill-5" fill="#FFFFFE" mask="url(#mask-2)"></path>
                    <path d="M218.756353,0 C216.134575,15.4735068 207.579048,33.6176801 190.97049,51 L199.992283,51 C216.695876,33.6499216 225.23299,15.5570957 227.761515,0 L218.756353,0" id="Fill-6" fill="#FFFFFE" mask="url(#mask-2)"></path>
                    <path d="M30.2567735,10.0951556 C30.2437062,13.0834602 27.3029664,16.0992297 20.7639632,16.0992297 L18.4641158,16.0992297 L22.3973776,7.45613337 L26.376375,7.45613337 C27.8773342,7.45613337 28.969049,7.77556253 29.617069,8.40307663 C30.0476964,8.84012737 30.2567735,9.39479969 30.2567735,10.0951556 Z M30.3286437,32.8134351 L27.1354671,21.2901028 L27.253073,21.2709967 C34.4305926,20.0714955 39.4436898,14.9683907 39.4436898,8.86102461 C39.4436898,4.27736543 35.6785212,1.75357653 28.8419397,1.75357653 L13.8590753,1.75357653 C13.7818593,1.75357653 13.7105831,1.79357981 13.6695992,1.85925683 C13.6292094,1.92493385 13.6250516,2.00732867 13.6595018,2.07658807 C14.0402358,2.85038282 14.2178325,3.52685617 14.2178325,4.20631483 C14.2178325,4.90428247 14.0800317,5.55269381 13.8074,6.13662226 L1.70290871,32.8982182 C1.59658828,33.1358496 1.49442564,33.3770634 1.3940449,33.6140977 C0.995491801,34.5538762 0.619509516,35.4411131 0.109884238,35.7426304 C0.0231647854,35.7939779 -0.0184130345,35.8972699 0.00772159512,35.9945913 C0.0344501936,36.0919127 0.122357584,36.1593809 0.222738321,36.1593809 L8.0346167,36.1593809 C8.03936845,36.1593809 8.04352624,36.1593809 8.04827799,36.1593809 C9.07228029,36.1593809 9.59140907,35.7683041 10.0986585,34.6153738 L10.0820273,34.608209 C10.3029838,34.1699642 11.3982623,31.7506615 17.7489773,17.7244375 L21.5824523,34.4004308 C21.9275482,35.6500855 22.1746393,36.1593809 23.2378435,36.1593809 L31.4655001,36.1593809 C31.5480618,36.1593809 31.6234958,36.1140041 31.6621038,36.0405652 C31.7007118,35.9671264 31.69596,35.8781639 31.6496304,35.8095015 C31.2748361,35.2566204 30.9808215,34.748519 30.3286437,32.8134351 L30.3286437,32.8134351 Z" id="Fill-7" fill="#FFFFFE" mask="url(#mask-2)"></path>
                </g>
                <path d="M119.23212,20.6082559 C119.316464,23.4807301 117.601676,27.4846402 115.245401,29.9200637 C114.07647,31.1004589 112.915261,31.7243906 111.886507,31.7243906 C111.883537,31.7243906 111.880568,31.7243906 111.878192,31.7243906 C110.512657,31.7130464 109.632989,30.8813365 109.524293,29.4991337 C109.524293,29.4985366 109.524293,29.4979395 109.524293,29.4979395 C109.319968,27.0541572 110.765688,23.349376 112.889721,20.8775317 C113.625648,20.0064155 115.114728,18.5274884 116.818825,18.4068815 C116.90495,18.4003138 116.9887,18.3967314 117.071855,18.3967314 C117.666418,18.3967314 118.173074,18.5716711 118.54668,18.907221 C118.971962,19.2947154 119.208955,19.8828233 119.23212,20.6082559 Z M124.360447,14.9361493 C122.743664,13.3760214 120.258498,12.688801 117.175206,12.9491208 C106.854997,13.8130722 102.230356,24.5202182 102.644946,30.0179822 C102.97935,34.4607343 105.977705,36.9660142 110.910022,36.9660142 C111.131573,36.9660142 111.357281,36.9612377 111.585959,36.9510876 C122.134846,36.4752277 126.115625,25.4576085 126.311635,20.5043668 C126.409046,18.1656677 125.734297,16.2401367 124.360447,14.9361493 L124.360447,14.9361493 Z" id="Fill-9" fill="#FFFFFE"></path>
                <path d="M80.7987713,14.3987918 C80.6021676,13.9969679 80.2089602,13.7659041 79.7201239,13.7653071 L72.4083673,13.7653071 C72.3281815,13.7653071 72.2545293,13.8082957 72.2147334,13.8781521 C72.1749375,13.9480086 72.1755315,14.0339858 72.2165153,14.1032452 C72.9263081,15.3117025 72.1915686,16.6759934 71.3772373,17.8522091 C71.3285319,17.9238568 66.5643077,24.7817322 65.0075153,27.0219158 C65.2658918,24.3196048 66.0546824,16.0598235 66.1117034,15.4215622 C66.1520933,14.9755555 66.0018192,14.5301459 65.700083,14.1987754 C65.4494281,13.9229319 65.1251212,13.76471 64.8103177,13.76471 C64.8097237,13.76471 64.8091297,13.76471 64.8091297,13.76471 L58.148363,13.76471 C58.0622375,13.76471 57.9844276,13.8142663 57.9476015,13.8912876 C57.9101815,13.9689059 57.9202789,14.0608537 57.9737361,14.1277248 C58.5807723,14.8943548 58.6882807,15.354691 58.7215429,16.4317942 L58.7215429,16.8043621 C58.7215429,18.9388653 58.1447992,35.0201831 58.1388595,35.187958 L50.2640204,45.1959423 C49.8939778,45.6688169 49.490079,46.0586996 48.994115,46.4246997 C48.9163051,46.4814208 48.8842307,46.5823246 48.9145232,46.6748695 C48.9442216,46.7662202 49.0297531,46.8289119 49.1259761,46.8289119 L55.6673551,46.8289119 C57.0554603,46.8289119 57.3417533,46.6396427 58.071147,45.7488234 L80.7179915,15.6018755 C80.9585489,15.2872228 80.9912172,14.792854 80.7987713,14.3987918" id="Fill-10" fill="#FFFFFE"></path>
                <path d="M42.872078,22.0812124 C43.4993091,20.646468 45.2723061,17.3100752 48.193445,17.3100752 C48.859878,17.3100752 49.3790068,17.4933738 49.7342002,17.8516121 C50.1113704,18.243286 50.2943128,18.8254232 50.2776817,19.5842914 C50.2604566,20.571835 49.8405206,21.6495352 49.661142,22.1092744 L49.6112486,22.2298813 L42.8061475,22.2298813 L42.872078,22.0812124 Z M49.6207521,35.3019972 C49.6878706,35.1664637 50.5396219,33.2970568 51.4068165,31.3942143 L51.7138984,30.7195322 C51.7525063,30.6347491 51.7346873,30.5344424 51.6693507,30.4687654 C51.6046081,30.4024913 51.5054153,30.3845794 51.4204778,30.4215973 C50.1398809,30.9977639 47.5727475,31.9638132 44.7680266,31.9638132 C42.5887549,31.9638132 41.3016243,31.0592615 40.9422732,29.2752347 C40.8846582,28.9910323 40.8555537,28.6829474 40.8555537,28.3593388 C40.8555537,27.6315179 40.9933545,26.8147346 41.2143109,26.229612 L41.2404456,26.1609497 L54.4782294,26.1609497 C54.5720765,26.1609497 54.6558261,26.1018404 54.6873065,26.0134749 C55.134565,24.7829263 55.9809706,21.8698518 55.9833465,19.6302653 C55.9833465,17.3733639 55.4755031,15.7774123 54.4318999,14.7516566 C53.266533,13.5742466 51.3723663,13.0016624 48.6401095,13.0016624 C45.142227,13.0016624 41.7061171,14.5665668 38.9661388,17.4079936 C35.9446192,20.5634761 34.1538031,24.9560748 34.2927919,28.8722166 C34.4668247,33.4708024 37.4420147,36.515231 42.0571527,36.8167482 C42.414722,36.8394367 42.7645696,36.8501838 43.1078836,36.8501838 C45.9898205,36.8501838 48.3282759,36.1002716 49.5334387,35.3957363 C49.5708587,35.3736449 49.6011512,35.3414035 49.6207521,35.3019972 L49.6207521,35.3019972 Z" id="Fill-11" fill="#FFFFFE"></path>
                <path d="M103.347611,17.0861762 C103.347611,16.1780421 103.047063,15.3057318 102.502393,14.6304526 C101.816359,13.7724718 100.784635,13.26855 99.4357321,13.1342106 C96.0982211,12.7968695 92.1233815,14.7886745 90.6188584,15.6281463 L90.6978562,15.4555948 C90.9817734,14.868084 90.8641675,14.4602894 90.7150813,14.2208668 C90.5196656,13.9068112 90.1977345,13.764113 89.9815298,13.764113 L83.7828708,13.764113 C83.684272,13.764113 83.5975526,13.8291929 83.569042,13.9247231 C83.5411255,14.0196563 83.5791395,14.1217542 83.6617012,14.176087 C83.7490146,14.2328081 83.9188897,14.625079 83.9188897,14.9660025 C83.9188897,15.3523028 83.8220728,15.738006 83.6129957,16.1828186 L75.293868,34.6392564 L75.2012088,34.8315109 C75.0996401,35.047648 74.9731248,35.3163268 74.6802981,35.8035309 C74.6387203,35.8721932 74.6375324,35.9587675 74.6773283,36.029221 C74.7165302,36.0996745 74.7907763,36.1432602 74.8709621,36.1432602 L80.6366178,36.1432602 C81.4396637,36.1146011 81.8382168,35.7945749 82.2765658,34.8255403 L87.7986943,22.6149875 C88.5809512,20.8691728 90.4757119,18.7830317 93.2430128,18.6492894 C94.1523791,18.6003301 94.7784223,18.8224379 95.107481,19.3078508 C95.6491806,20.1114987 95.1157966,21.3372708 95.0017546,21.5778876 L89.0899826,34.6523918 C88.8690261,35.1509401 88.8428915,35.5569435 89.0157364,35.8256222 C89.1078016,35.9695146 89.2996536,36.1408719 89.692267,36.1432602 L96.8870117,36.1432602 C96.9695734,36.1432602 97.0450074,36.0972863 97.0836154,36.0244445 C97.1222234,35.9516027 97.1180656,35.8632373 97.07233,35.7945749 C96.8092018,35.3999157 96.4712335,34.0087569 97.1786504,32.4414643 L102.247581,21.1856166 C102.690087,20.2392704 103.137346,19.1818703 103.319694,17.5871128 C103.339889,17.4181437 103.347611,17.2545482 103.347611,17.0861762" id="Fill-12" fill="#FFFFFE"></path>
                <path d="M143.783823,5.23027933 C143.600286,4.93413566 143.277167,4.75800183 142.897621,4.74606055 C142.895839,4.74606055 142.893463,4.74606055 142.891087,4.74606055 L136.077077,4.74307523 C135.991545,4.74307523 135.912547,4.79322859 135.875721,4.87084689 C135.838895,4.94906226 135.850181,5.04160716 135.904826,5.10907537 C136.557004,5.91212625 136.40079,7.10446276 136.149541,7.66689691 L123.722525,35.1790021 L123.683323,35.2739352 C123.562747,35.5682877 123.534236,35.6381442 123.410691,35.7665129 C123.348324,35.8309958 123.330505,35.926526 123.365549,36.0095179 C123.4,36.0925098 123.480779,36.1462455 123.570469,36.1462455 L129.299298,36.1456485 C130.109472,36.0954951 130.491988,35.7850219 130.935088,34.8171814 L143.8058,6.44052776 C144.000621,6.00765647 143.992306,5.56642628 143.783823,5.23027933" id="Fill-13" fill="#FFFFFE"></path>
                <path d="M153.797544,22.900384 L151.391376,28.1348428 C150.679801,29.7301974 149.130136,31.5930366 147.10589,31.5930366 C146.422232,31.5930366 145.819948,31.3512257 145.402388,30.904622 C144.965821,30.4807066 144.753774,29.8275188 144.788224,29.0173031 C144.788224,29.0167061 144.788224,29.0167061 144.788224,29.0167061 C144.953347,24.8414386 148.586655,18.1937297 152.581689,18.1937297 C153.807047,18.1937297 154.543568,18.6839191 154.711662,19.6153387 C154.836395,20.2392704 154.580395,21.1605399 153.797544,22.900384 Z M155.70062,33.9639771 L168.214356,6.44530427 C168.43056,5.94138238 168.435906,5.48641972 168.228611,5.16579644 C168.05636,4.89950596 167.752248,4.75024 167.369138,4.74606055 L160.202904,4.74367229 C160.104899,4.74367229 160.018179,4.80755813 159.989669,4.90189421 C159.961158,4.9962303 159.997391,5.09773116 160.07817,5.1532581 C160.584232,5.49597275 160.880028,6.96654101 160.192806,8.48726264 L160.12153,8.64488749 C158.477424,12.2756328 157.363733,14.7313564 156.934887,15.6711349 C156.238162,14.4531246 154.642167,13.2936266 151.975841,13.2936266 C148.771379,13.2936266 145.498611,14.9021166 142.759226,17.8235501 C139.431813,21.4005596 137.365989,26.4385844 137.61902,30.3600997 C137.963522,35.5808261 141.535651,36.3576061 143.055023,36.4489569 C143.157186,36.4555246 143.259348,36.4585099 143.363293,36.4585099 C145.729071,36.4585099 148.409652,34.8327051 149.558982,34.0529397 L149.390889,34.5473085 C149.261403,34.9097263 149.065394,35.4572338 149.335056,35.832787 C149.491269,36.0501182 149.766871,36.1492308 150.156515,36.1450514 L155.65429,36.1450514 C155.749325,36.1450514 155.833669,36.0841509 155.865149,35.9939942 C155.896036,35.9038376 155.866931,35.8041279 155.792091,35.7450186 C155.640035,35.6256058 155.186243,35.1437753 155.70062,33.9639771 L155.70062,33.9639771 Z" id="Fill-14" fill="#FFFFFE"></path>
                <path d="M181.537077,14.111007 C179.681518,13.3885598 177.540855,13.0016624 175.345546,12.9921094 C175.337824,12.9921094 175.330103,12.9921094 175.322381,12.9921094 C172.366198,12.9921094 169.796689,13.923529 168.08487,15.615608 C168.084276,15.616205 168.084276,15.616205 168.083683,15.6168021 C166.729434,16.9751223 166.016671,18.729893 166.023799,20.6906507 C166.030926,22.4394507 166.784079,23.7428411 167.515254,25.0086165 L167.549705,25.0671287 C168.194161,26.1878176 168.803573,27.2464118 168.803573,28.4936781 C168.803573,29.184481 168.532723,29.82931 168.046262,30.3057669 C167.479022,30.8287949 166.661721,31.1070266 165.797496,31.0753822 C164.228825,31.0091082 162.832404,30.4287621 161.646842,29.3504648 C161.594573,29.3021026 161.522109,29.2823995 161.450832,29.2973261 C161.381338,29.3122527 161.322535,29.3600178 161.293431,29.4262919 C161.024957,30.0382823 159.113565,34.252359 158.919337,34.6786626 C158.875383,34.7747899 158.904488,34.888232 158.988237,34.9515208 C160.501076,36.0841509 162.566306,36.6943501 165.302126,36.8167482 C165.527241,36.8274954 165.746415,36.8316748 165.962026,36.8316748 C173.051044,36.8316748 175.261796,31.5297478 175.429889,28.642347 C175.546307,26.6714393 174.793155,25.1978857 174.064355,23.7732913 L174.035844,23.7177644 C173.401486,22.5439369 172.917995,21.5617668 172.944724,20.5037697 C172.968482,19.6726568 173.563639,18.2659744 175.647282,18.2659744 C176.885113,18.2659744 178.062359,18.6260039 179.145164,19.3353157 C179.199216,19.3717366 179.265146,19.3812897 179.329889,19.3627807 C179.391662,19.3442717 179.443337,19.2994919 179.470065,19.2397855 C179.57104,19.0152895 179.891189,18.3107542 180.258262,17.5041209 C180.827284,16.252078 181.507973,14.7534478 181.660029,14.4107331 C181.684975,14.3546091 181.685569,14.2907233 181.662405,14.2340022 C181.63924,14.1772811 181.594098,14.1330984 181.537077,14.111007" id="Fill-15" fill="#FFFFFE"></path>
            </g>
        </g>
    </g>
</svg>